# xmcd
# Track frame offsets:
# 150
# 16045
# 28627
# 43747
# 59255
# 73447
# 88432
# 105312
# 121202
# 135902
# 151915
#
# Disc length: 2266 seconds
# Revision: 2
# Processed by: cddbd v1.4PL0 Copyright (c) Steve Scherf et al.
# Submitted via: VisiTrax 2.9.5.181 - For more info visit www.synapsa.com
#
DISCID=8b08d80b
DTITLE=Gibson-Miller Band - Where There's Smoke ...
DYEAR=1993
DGENRE=
TTITLE0=High Rollin'
TTITLE1=Where There's Smoke
TTITLE2=Your Daddy Hates Me
TTITLE3=Small Price
TTITLE4=Texas Tattoo
TTITLE5=She's Gettin' A Rock
TTITLE6=Big Heart
TTITLE7=An Offer Her Heart Can't Refuse
TTITLE8=Thanks Virginia
TTITLE9=Stone Cold Country
TTITLE10=Southern Man
EXTD=
EXTT0=
EXTT1=
EXTT2=
EXTT3=
EXTT4=
EXTT5=
EXTT6=
EXTT7=
EXTT8=
EXTT9=
EXTT10=
PLAYORDER=
